<?xml version="1.0" encoding="utf-8"?>
<!-- Generator: Adobe Illustrator 17.0.0, SVG Export Plug-In . SVG Version: 6.00 Build 0)  -->
<!DOCTYPE svg PUBLIC "-//W3C//DTD SVG 1.1//EN" "http://www.w3.org/Graphics/SVG/1.1/DTD/svg11.dtd">
<svg version="1.1" id="Layer_1" xmlns="http://www.w3.org/2000/svg" xmlns:xlink="http://www.w3.org/1999/xlink" x="0px" y="0px"
	 width="50.92px" height="68.939px" viewBox="0 0 50.92 68.939" enable-background="new 0 0 50.92 68.939" xml:space="preserve">
<g>
	<path opacity="0.6" fill="#FFFFFF" d="M39.596,46.623c-0.802,0.537-1.638,1.026-2.5,1.471c-3.491,1.802-7.445,2.827-11.637,2.827
		c-4.191,0-8.146-1.025-11.636-2.826c-0.862-0.445-1.698-0.934-2.5-1.471c-0.874-0.586-1.707-1.228-2.5-1.914v21.73
		c0,0.783,0.367,1.521,0.993,1.994c0.439,0.332,0.969,0.506,1.507,0.506c0.228,0,0.458-0.031,0.682-0.095L25.46,65.03l13.455,3.814
		c0.753,0.212,1.562,0.062,2.189-0.411c0.625-0.473,0.992-1.211,0.992-1.994V44.708C41.303,45.395,40.471,46.037,39.596,46.623z"/>
	<path fill="#FFFFFF" d="M25.46,0C11.421,0,0,11.421,0,25.46c0,7.683,3.425,14.577,8.824,19.249c0.793,0.687,1.626,1.329,2.5,1.914
		c0.802,0.537,1.638,1.026,2.5,1.471c3.49,1.802,7.445,2.826,11.636,2.826c4.192,0,8.146-1.025,11.637-2.827
		c0.862-0.445,1.698-0.933,2.5-1.471c0.874-0.586,1.707-1.228,2.5-1.915c5.398-4.672,8.823-11.566,8.823-19.248
		C50.92,11.421,39.499,0,25.46,0z M25.46,40.92c-2.64,0-5.127-0.668-7.304-1.84c-1.252-0.674-2.395-1.521-3.41-2.5
		C11.826,33.767,10,29.826,10,25.46C10,16.936,16.936,10,25.46,10s15.46,6.936,15.46,15.46c0,4.366-1.826,8.307-4.746,11.121
		c-1.016,0.979-2.158,1.826-3.41,2.5C30.587,40.252,28.1,40.92,25.46,40.92z"/>
</g>
<g>
	<path fill="#FFFFFF" d="M24.006,33.439l-6.537-6.437c-0.74-0.743-0.74-2.104,0-2.847c0.863-0.743,2.097-0.743,2.96,0l3.33,3.342
		l6.783-8.17c0.74-0.867,1.973-0.99,2.96-0.248c0.863,0.743,0.987,1.981,0.247,2.847L24.006,33.439z"/>
</g>
</svg>
